<svg id="svg" version="1.1" xmlns="http://www.w3.org/2000/svg"  width="568px" height="724px" viewBox="0, 0, 400,509.85915492957747"><g id="svgg"><path id="path0" d="M392.196 175.656 C 388.018 179.207,383.700 182.877,382.600 183.812 C 380.638 185.480,373.924 191.193,362.400 201.000 C 359.210 203.715,353.888 208.245,350.574 211.068 C 347.259 213.891,341.788 218.540,338.415 221.400 C 333.398 225.654,324.241 233.440,319.193 237.742 C 318.639 238.214,317.021 239.590,315.597 240.800 C 314.173 242.010,312.466 243.469,311.804 244.042 C 308.885 246.567,301.484 252.851,298.193 255.599 C 296.217 257.249,294.510 258.690,294.400 258.802 C 294.290 258.913,293.033 259.994,291.607 261.202 C 290.181 262.411,288.561 263.787,288.007 264.260 C 280.819 270.399,276.764 273.844,274.189 276.000 C 272.481 277.430,270.885 278.780,270.642 279.000 C 270.399 279.220,269.033 280.390,267.607 281.600 C 266.181 282.810,264.561 284.189,264.007 284.665 C 261.254 287.029,250.110 296.512,243.399 302.200 C 235.805 308.636,230.915 312.795,218.000 323.800 C 206.834 333.315,200.599 338.619,193.785 344.400 C 190.284 347.370,184.175 352.564,180.210 355.943 C 176.244 359.321,172.017 362.921,170.816 363.943 C 169.614 364.964,167.801 366.520,166.786 367.400 C 165.771 368.280,163.440 370.260,161.605 371.800 C 158.831 374.130,152.225 379.732,147.997 383.343 C 147.445 383.814,145.375 385.582,143.397 387.272 C 141.418 388.961,136.560 393.081,132.600 396.427 C 128.640 399.772,124.410 403.361,123.200 404.402 C 121.990 405.444,116.680 409.966,111.400 414.452 C 106.120 418.938,99.472 424.587,96.626 427.004 C 93.781 429.422,88.741 433.709,85.426 436.532 C 75.941 444.610,56.500 461.154,53.400 463.786 C 46.039 470.037,31.228 482.624,30.393 483.339 C 29.327 484.251,24.901 488.017,23.207 489.454 C 22.653 489.924,20.850 491.464,19.200 492.877 C 15.449 496.090,3.025 506.632,1.292 508.074 C 0.581 508.665,0.000 509.250,0.000 509.374 C 0.000 509.498,90.000 509.600,200.000 509.600 L 400.000 509.600 400.000 339.400 C 400.000 245.790,399.953 169.200,399.896 169.200 C 399.839 169.200,396.374 172.105,392.196 175.656 " stroke="none" fill="#fb8484" fill-rule="evenodd"></path><path id="path1" d="M-0.000 254.433 C -0.000 404.888,0.147 508.812,0.360 508.733 C 0.691 508.610,9.627 501.073,23.207 489.461 C 23.761 488.987,25.378 487.610,26.800 486.400 C 28.222 485.190,29.839 483.812,30.393 483.339 C 31.228 482.624,46.039 470.037,53.400 463.786 C 56.500 461.154,75.941 444.610,85.426 436.532 C 88.741 433.709,93.781 429.422,96.626 427.004 C 99.472 424.587,106.120 418.938,111.400 414.452 C 116.680 409.966,121.990 405.444,123.200 404.402 C 124.410 403.361,128.640 399.772,132.600 396.427 C 136.560 393.081,141.418 388.961,143.397 387.272 C 145.375 385.582,147.445 383.814,147.997 383.343 C 152.225 379.732,158.831 374.130,161.605 371.800 C 163.440 370.260,165.771 368.280,166.786 367.400 C 167.801 366.520,169.614 364.964,170.816 363.943 C 172.017 362.921,176.244 359.321,180.210 355.943 C 184.175 352.564,190.284 347.370,193.785 344.400 C 200.599 338.619,206.834 333.315,218.000 323.800 C 230.915 312.795,235.805 308.636,243.399 302.200 C 250.110 296.512,261.254 287.029,264.007 284.665 C 264.561 284.189,266.181 282.810,267.607 281.600 C 269.033 280.390,270.399 279.220,270.642 279.000 C 270.885 278.780,272.481 277.430,274.189 276.000 C 276.764 273.844,280.819 270.399,288.007 264.260 C 288.561 263.787,290.181 262.411,291.607 261.202 C 293.033 259.994,294.290 258.913,294.400 258.802 C 294.510 258.690,296.217 257.249,298.193 255.599 C 301.484 252.851,308.885 246.567,311.804 244.042 C 312.466 243.469,314.173 242.010,315.597 240.800 C 317.021 239.590,318.639 238.214,319.193 237.742 C 324.241 233.440,333.398 225.654,338.415 221.400 C 341.788 218.540,347.259 213.891,350.574 211.068 C 353.888 208.245,359.210 203.715,362.400 201.000 C 365.590 198.285,370.913 193.755,374.228 190.932 C 377.543 188.109,380.963 185.201,381.828 184.468 C 382.693 183.736,387.135 179.965,391.700 176.088 L 400.000 169.040 400.000 84.520 L 400.000 0.000 200.000 0.000 L 0.000 0.000 -0.000 254.433 " stroke="none" fill="#ecebeb" fill-rule="evenodd"></path></g></svg>