<svg id="svg" version="1.1" xmlns="http://www.w3.org/2000/svg" width="568px" height="724px" viewBox="0, 0, 400,509.85915492957747">
    <g id="svg-g">
        <path id="path0" d="M398.121 170.310 C 392.719 175.105,391.660 176.000,391.391 176.000 C 391.227 176.000,390.207 176.900,389.124 178.000 C 388.042 179.100,387.010 180.000,386.832 180.000 C 386.654 180.000,385.595 180.855,384.479 181.900 C 380.748 185.393,377.693 188.000,377.330 188.000 C 377.132 188.000,376.083 188.900,375.000 190.000 C 373.917 191.100,372.843 192.001,372.615 192.002 C 372.387 192.004,371.223 192.994,370.029 194.202 C 368.835 195.411,367.704 196.400,367.514 196.400 C 367.325 196.400,366.383 197.210,365.421 198.200 C 364.459 199.190,363.514 200.000,363.321 200.000 C 363.128 200.000,362.083 200.900,361.000 202.000 C 359.917 203.100,358.837 204.000,358.601 204.000 C 358.366 204.000,357.195 204.990,356.000 206.200 C 354.805 207.410,353.659 208.400,353.452 208.400 C 353.100 208.400,351.118 210.102,346.725 214.177 C 345.693 215.134,344.671 215.981,344.453 216.058 C 344.235 216.136,343.069 217.145,341.862 218.300 C 340.655 219.455,339.534 220.400,339.372 220.400 C 339.210 220.400,338.123 221.255,336.958 222.300 C 335.792 223.345,333.652 225.190,332.203 226.400 C 330.754 227.610,328.768 229.320,327.789 230.200 C 326.810 231.080,324.833 232.790,323.396 234.000 C 321.959 235.210,319.722 237.100,318.424 238.200 C 317.127 239.300,314.969 241.100,313.630 242.200 C 312.291 243.300,310.175 245.145,308.926 246.300 C 307.678 247.455,306.539 248.400,306.394 248.400 C 306.249 248.400,305.210 249.255,304.085 250.300 C 300.110 253.992,297.285 256.400,296.930 256.400 C 296.732 256.400,295.683 257.300,294.600 258.400 C 293.517 259.500,292.443 260.403,292.215 260.407 C 291.987 260.410,291.023 261.218,290.072 262.202 C 289.122 263.186,288.087 264.135,287.772 264.312 C 287.161 264.653,284.573 266.886,280.830 270.300 C 279.564 271.455,278.379 272.400,278.198 272.400 C 278.016 272.400,276.862 273.309,275.634 274.419 C 274.405 275.530,272.230 277.428,270.800 278.638 C 265.954 282.738,264.280 284.195,262.001 286.300 C 260.751 287.455,259.581 288.400,259.402 288.400 C 259.224 288.400,258.126 289.255,256.964 290.300 C 251.865 294.885,250.065 296.400,249.717 296.400 C 249.512 296.400,248.637 297.171,247.772 298.112 C 246.907 299.054,245.750 300.109,245.200 300.457 C 244.650 300.805,243.457 301.790,242.548 302.645 C 241.639 303.500,239.696 305.190,238.229 306.400 C 236.762 307.610,234.608 309.455,233.442 310.500 C 232.277 311.545,231.191 312.400,231.030 312.400 C 230.869 312.400,229.971 313.166,229.035 314.101 C 228.100 315.037,226.719 316.276,225.967 316.853 C 225.215 317.431,224.017 318.465,223.304 319.152 C 222.591 319.838,221.864 320.400,221.689 320.400 C 221.513 320.400,220.483 321.300,219.400 322.400 C 218.317 323.500,217.237 324.400,217.001 324.400 C 216.766 324.400,215.595 325.390,214.400 326.600 C 213.205 327.810,212.057 328.800,211.850 328.800 C 211.642 328.800,210.376 329.813,209.036 331.051 C 207.696 332.290,205.880 333.970,205.000 334.785 C 204.120 335.601,203.188 336.342,202.928 336.434 C 202.668 336.525,201.469 337.545,200.262 338.700 C 199.055 339.855,197.910 340.800,197.719 340.800 C 197.527 340.800,196.483 341.700,195.400 342.800 C 194.317 343.900,193.261 344.800,193.054 344.800 C 192.847 344.800,191.742 345.655,190.598 346.700 C 189.455 347.745,187.637 349.355,186.560 350.278 C 185.482 351.201,183.386 353.001,181.903 354.278 C 180.419 355.555,178.123 357.500,176.800 358.600 C 175.477 359.700,173.181 361.642,171.697 362.917 C 170.214 364.191,168.632 365.541,168.183 365.917 C 167.734 366.292,166.024 367.769,164.383 369.199 C 162.742 370.628,161.220 371.922,161.000 372.073 C 160.508 372.412,155.726 376.525,152.964 378.986 C 151.844 379.984,150.764 380.803,150.564 380.807 C 150.364 380.810,149.423 381.618,148.472 382.602 C 147.522 383.586,146.488 384.535,146.174 384.710 C 145.611 385.026,143.765 386.623,139.252 390.700 C 137.974 391.855,136.757 392.800,136.549 392.800 C 136.340 392.800,135.283 393.700,134.200 394.800 C 133.117 395.900,132.043 396.800,131.815 396.801 C 131.587 396.801,130.517 397.701,129.438 398.801 C 128.359 399.900,127.334 400.800,127.160 400.800 C 126.986 400.800,125.958 401.700,124.876 402.800 C 123.793 403.900,122.741 404.800,122.538 404.800 C 122.336 404.800,121.283 405.700,120.200 406.800 C 119.117 407.900,118.037 408.800,117.801 408.800 C 117.566 408.800,116.395 409.790,115.200 411.000 C 114.005 412.210,112.859 413.200,112.652 413.200 C 112.446 413.200,111.270 414.101,110.039 415.201 C 104.928 419.770,101.518 422.714,96.607 426.800 C 95.152 428.010,93.008 429.855,91.842 430.900 C 90.677 431.945,89.591 432.800,89.430 432.800 C 89.269 432.800,88.371 433.566,87.435 434.501 C 86.500 435.437,85.029 436.740,84.167 437.396 C 83.305 438.052,82.060 439.089,81.400 439.701 C 78.018 442.833,75.684 444.800,75.348 444.800 C 75.141 444.800,73.995 445.790,72.800 447.000 C 71.605 448.210,70.441 449.202,70.214 449.205 C 69.986 449.207,68.912 450.107,67.826 451.205 C 66.740 452.302,65.702 453.200,65.519 453.200 C 65.336 453.200,64.410 454.010,63.462 455.000 C 62.513 455.990,61.588 456.800,61.405 456.800 C 61.222 456.800,59.976 457.787,58.636 458.993 C 57.296 460.199,55.195 462.089,53.966 463.193 C 52.738 464.297,51.585 465.200,51.405 465.200 C 51.225 465.200,50.070 466.114,48.839 467.231 C 47.607 468.348,45.726 470.013,44.657 470.931 C 43.588 471.849,41.593 473.635,40.223 474.900 C 38.853 476.165,37.585 477.200,37.405 477.200 C 37.225 477.200,36.131 478.055,34.975 479.100 C 33.818 480.145,31.687 481.990,30.238 483.200 C 28.789 484.410,26.918 486.030,26.080 486.800 C 25.243 487.570,23.937 488.678,23.179 489.262 C 22.420 489.847,21.128 490.927,20.306 491.662 C 19.485 492.398,17.623 493.990,16.170 495.200 C 14.717 496.410,12.582 498.255,11.425 499.300 C 10.269 500.345,9.181 501.200,9.008 501.200 C 8.835 501.200,7.807 502.100,6.724 503.200 C 5.642 504.300,4.621 505.200,4.457 505.200 C 4.149 505.200,0.000 509.143,0.000 509.436 C 0.000 509.526,90.000 509.600,200.000 509.600 L 400.000 509.600 400.000 339.200 C 400.000 245.480,399.955 168.805,399.900 168.810 C 399.845 168.816,399.045 169.491,398.121 170.310 " stroke="none" fill="#fb8787" fill-rule="evenodd"/>
        <path id="path1" d="M0.000 254.400 C 0.000 394.320,0.144 508.800,0.321 508.800 C 0.497 508.800,1.413 507.990,2.357 507.000 C 3.300 506.010,4.226 505.200,4.414 505.200 C 4.602 505.200,5.642 504.300,6.724 503.200 C 7.807 502.100,8.835 501.200,9.008 501.200 C 9.181 501.200,10.269 500.345,11.425 499.300 C 12.582 498.255,14.717 496.410,16.170 495.200 C 17.623 493.990,19.485 492.398,20.306 491.662 C 21.128 490.927,22.420 489.847,23.179 489.262 C 23.937 488.678,25.243 487.570,26.080 486.800 C 26.918 486.030,28.789 484.410,30.238 483.200 C 31.687 481.990,33.818 480.145,34.975 479.100 C 36.131 478.055,37.225 477.200,37.405 477.200 C 37.585 477.200,38.853 476.165,40.223 474.900 C 41.593 473.635,43.588 471.849,44.657 470.931 C 45.726 470.013,47.607 468.348,48.839 467.231 C 50.070 466.114,51.224 465.200,51.402 465.200 C 51.581 465.200,52.824 464.213,54.164 463.007 C 55.504 461.801,57.605 459.911,58.834 458.807 C 60.062 457.703,61.218 456.800,61.402 456.800 C 61.586 456.800,62.513 455.990,63.462 455.000 C 64.410 454.010,65.336 453.200,65.519 453.200 C 65.702 453.200,66.740 452.302,67.826 451.205 C 68.912 450.107,69.986 449.207,70.214 449.205 C 70.441 449.202,71.605 448.210,72.800 447.000 C 73.995 445.790,75.141 444.800,75.348 444.800 C 75.684 444.800,78.018 442.833,81.400 439.701 C 82.060 439.089,83.305 438.052,84.167 437.396 C 85.029 436.740,86.500 435.437,87.435 434.501 C 88.371 433.566,89.269 432.800,89.430 432.800 C 89.591 432.800,90.677 431.945,91.842 430.900 C 93.008 429.855,95.152 428.010,96.607 426.800 C 101.518 422.714,104.928 419.770,110.039 415.201 C 111.270 414.101,112.446 413.200,112.652 413.200 C 112.859 413.200,114.005 412.210,115.200 411.000 C 116.395 409.790,117.566 408.800,117.801 408.800 C 118.037 408.800,119.117 407.900,120.200 406.800 C 121.283 405.700,122.336 404.800,122.538 404.800 C 122.741 404.800,123.793 403.900,124.876 402.800 C 125.958 401.700,126.986 400.800,127.160 400.800 C 127.334 400.800,128.359 399.900,129.438 398.801 C 130.517 397.701,131.587 396.801,131.815 396.801 C 132.043 396.800,133.117 395.900,134.200 394.800 C 135.283 393.700,136.340 392.800,136.549 392.800 C 136.757 392.800,137.974 391.855,139.252 390.700 C 143.765 386.623,145.611 385.026,146.174 384.710 C 146.488 384.535,147.522 383.586,148.472 382.602 C 149.423 381.618,150.364 380.810,150.564 380.807 C 150.764 380.803,151.844 379.984,152.964 378.986 C 155.726 376.525,160.508 372.412,161.000 372.073 C 161.220 371.922,162.742 370.628,164.383 369.199 C 166.024 367.769,167.734 366.292,168.183 365.917 C 168.632 365.541,170.214 364.191,171.697 362.917 C 173.181 361.642,175.477 359.700,176.800 358.600 C 178.123 357.500,180.419 355.555,181.903 354.278 C 183.386 353.001,185.482 351.201,186.560 350.278 C 187.637 349.355,189.455 347.745,190.598 346.700 C 191.742 345.655,192.847 344.800,193.054 344.800 C 193.261 344.800,194.317 343.900,195.400 342.800 C 196.483 341.700,197.527 340.800,197.719 340.800 C 197.910 340.800,199.055 339.855,200.262 338.700 C 201.469 337.545,202.668 336.525,202.928 336.434 C 203.188 336.342,204.120 335.601,205.000 334.785 C 205.880 333.970,207.696 332.290,209.036 331.051 C 210.376 329.813,211.642 328.800,211.850 328.800 C 212.057 328.800,213.205 327.810,214.400 326.600 C 215.595 325.390,216.766 324.400,217.001 324.400 C 217.237 324.400,218.317 323.500,219.400 322.400 C 220.483 321.300,221.513 320.400,221.689 320.400 C 221.864 320.400,222.591 319.838,223.304 319.152 C 224.017 318.465,225.215 317.431,225.967 316.853 C 226.719 316.276,228.100 315.037,229.035 314.101 C 229.971 313.166,230.869 312.400,231.030 312.400 C 231.191 312.400,232.277 311.545,233.442 310.500 C 234.608 309.455,236.762 307.610,238.229 306.400 C 239.696 305.190,241.639 303.500,242.548 302.645 C 243.457 301.790,244.650 300.805,245.200 300.457 C 245.750 300.109,246.907 299.054,247.772 298.112 C 248.637 297.171,249.512 296.400,249.717 296.400 C 250.065 296.400,251.865 294.885,256.964 290.300 C 258.126 289.255,259.224 288.400,259.402 288.400 C 259.581 288.400,260.751 287.455,262.001 286.300 C 264.280 284.195,265.954 282.738,270.800 278.638 C 272.230 277.428,274.405 275.530,275.634 274.419 C 276.862 273.309,278.016 272.400,278.198 272.400 C 278.379 272.400,279.564 271.455,280.830 270.300 C 284.573 266.886,287.161 264.653,287.772 264.312 C 288.087 264.135,289.122 263.186,290.072 262.202 C 291.023 261.218,291.987 260.410,292.215 260.407 C 292.443 260.403,293.517 259.500,294.600 258.400 C 295.683 257.300,296.732 256.400,296.930 256.400 C 297.285 256.400,300.110 253.992,304.085 250.300 C 305.210 249.255,306.249 248.400,306.394 248.400 C 306.539 248.400,307.678 247.455,308.926 246.300 C 310.175 245.145,312.291 243.300,313.630 242.200 C 314.969 241.100,317.127 239.300,318.424 238.200 C 319.722 237.100,321.959 235.210,323.396 234.000 C 324.833 232.790,326.810 231.080,327.789 230.200 C 328.768 229.320,330.754 227.610,332.203 226.400 C 333.652 225.190,335.792 223.345,336.958 222.300 C 338.123 221.255,339.210 220.400,339.372 220.400 C 339.534 220.400,340.655 219.455,341.862 218.300 C 343.069 217.145,344.235 216.136,344.453 216.058 C 344.671 215.981,345.693 215.134,346.725 214.177 C 351.118 210.102,353.100 208.400,353.452 208.400 C 353.659 208.400,354.805 207.410,356.000 206.200 C 357.195 204.990,358.366 204.000,358.601 204.000 C 358.837 204.000,359.917 203.100,361.000 202.000 C 362.083 200.900,363.128 200.000,363.321 200.000 C 363.514 200.000,364.459 199.190,365.421 198.200 C 366.383 197.210,367.325 196.400,367.514 196.400 C 367.704 196.400,368.835 195.411,370.029 194.202 C 371.223 192.994,372.387 192.004,372.615 192.002 C 372.843 192.001,373.917 191.100,375.000 190.000 C 376.083 188.900,377.132 188.000,377.330 188.000 C 377.693 188.000,380.748 185.393,384.479 181.900 C 385.595 180.855,386.654 180.000,386.832 180.000 C 387.010 180.000,388.042 179.100,389.124 178.000 C 390.207 176.900,391.235 176.000,391.408 176.000 C 391.581 176.000,392.668 175.145,393.823 174.100 C 394.978 173.055,396.840 171.420,397.962 170.467 L 400.000 168.734 400.000 84.367 L 400.000 0.000 200.000 0.000 L 0.000 0.000 0.000 254.400 " stroke="none" fill="#ececec" fill-rule="evenodd"/>
    </g>
</svg>