<svg id="svg" xmlns="http://www.w3.org/2000/svg" width="740px" height="768px" viewBox="0, 0, 400,415.13513513513516" version="1.1"><g id="svgg"><path id="path0" d="M1.826 2.100 C 3.733 4.169,10.706 11.478,29.200 30.795 C 34.370 36.195,42.290 44.475,46.800 49.195 C 51.310 53.915,59.311 62.282,64.580 67.789 C 69.849 73.295,76.149 79.879,78.580 82.420 C 81.011 84.961,86.507 90.721,90.792 95.220 C 95.078 99.719,101.022 105.920,104.001 109.000 C 108.218 113.361,118.256 123.873,124.800 130.782 C 125.130 131.131,131.600 137.892,139.179 145.808 C 146.757 153.724,156.566 163.980,160.975 168.600 C 165.385 173.220,171.157 179.250,173.801 182.000 C 176.446 184.750,182.387 190.956,187.005 195.792 C 194.600 203.747,207.150 216.869,218.976 229.221 C 221.409 231.762,226.906 237.522,231.192 242.021 C 235.477 246.519,241.237 252.542,243.992 255.404 C 246.746 258.266,251.236 262.946,253.968 265.804 C 256.701 268.662,260.400 272.530,262.188 274.400 C 263.977 276.270,271.631 284.280,279.197 292.200 C 286.764 300.120,294.421 308.130,296.212 310.000 C 298.004 311.870,301.534 315.560,304.056 318.200 C 306.578 320.840,313.042 327.595,318.421 333.212 C 323.799 338.828,331.800 347.198,336.199 351.812 C 340.599 356.425,346.276 362.360,348.815 365.000 C 351.354 367.640,355.405 371.869,357.816 374.397 C 360.227 376.925,364.014 380.885,366.230 383.197 C 368.447 385.509,376.161 393.565,383.373 401.100 L 396.486 414.800 398.243 414.800 L 400.000 414.800 400.000 207.400 L 400.000 0.000 199.945 0.000 L -0.109 0.000 1.826 2.100 " stroke="none" fill="#ff8a8a" fill-rule="evenodd"/><path id="path1" d="M0.009 207.500 L 0.000 414.800 198.292 414.800 L 396.585 414.800 392.765 410.900 C 390.664 408.755,384.737 402.590,379.594 397.200 C 374.450 391.810,368.432 385.509,366.221 383.197 C 364.009 380.885,360.227 376.925,357.816 374.397 C 355.405 371.869,351.354 367.640,348.815 365.000 C 346.276 362.360,340.599 356.425,336.199 351.812 C 331.800 347.198,323.799 338.828,318.421 333.212 C 313.042 327.595,306.578 320.840,304.056 318.200 C 301.534 315.560,298.004 311.870,296.212 310.000 C 294.421 308.130,286.764 300.120,279.197 292.200 C 271.631 284.280,263.977 276.270,262.188 274.400 C 260.400 272.530,256.701 268.662,253.968 265.804 C 251.236 262.946,246.746 258.266,243.992 255.404 C 241.237 252.542,235.477 246.519,231.192 242.021 C 226.906 237.522,221.409 231.762,218.976 229.221 C 207.150 216.869,194.600 203.747,187.005 195.792 C 182.387 190.956,176.446 184.750,173.801 182.000 C 171.157 179.250,165.385 173.220,160.975 168.600 C 156.566 163.980,146.757 153.724,139.179 145.808 C 131.600 137.892,125.130 131.131,124.800 130.782 C 118.256 123.873,108.218 113.361,104.001 109.000 C 101.022 105.920,95.078 99.719,90.792 95.220 C 86.507 90.721,81.011 84.961,78.580 82.420 C 76.149 79.879,69.849 73.295,64.580 67.789 C 59.311 62.282,51.310 53.915,46.800 49.195 C 42.290 44.475,34.370 36.195,29.200 30.795 C 14.467 15.407,3.938 4.380,1.894 2.200 L 0.019 0.200 0.009 207.500 " stroke="none" fill="#ffffff" fill-rule="evenodd"/></g></svg>