<svg id="svg" version="1.1" xmlns="http://www.w3.org/2000/svg" width="842px" height="670px" viewBox="0, 0, 400,318.28978622327793"><g id="svgg"><path id="path0" d="M96.550 0.309 C 96.608 0.479,99.156 3.238,102.211 6.440 C 105.266 9.641,110.568 15.199,113.993 18.790 C 117.418 22.381,122.007 27.182,124.191 29.459 C 129.630 35.131,132.766 38.413,141.081 47.134 C 145.005 51.250,149.382 55.836,150.808 57.325 C 152.233 58.814,155.035 61.751,157.034 63.851 C 159.033 65.952,162.463 69.535,164.655 71.813 C 166.847 74.091,171.433 78.893,174.845 82.484 C 178.258 86.075,182.836 90.876,185.019 93.153 C 187.202 95.430,190.287 98.654,191.873 100.318 C 196.269 104.931,201.966 110.887,206.041 115.131 C 208.061 117.235,212.433 121.821,215.756 125.322 C 219.079 128.823,223.456 133.408,225.481 135.510 C 227.507 137.611,230.318 140.549,231.728 142.038 C 235.428 145.946,241.275 152.076,245.860 156.855 C 251.534 162.769,254.289 165.652,266.093 178.025 C 271.857 184.068,276.649 189.087,276.742 189.178 C 276.835 189.269,278.341 190.845,280.088 192.681 C 281.836 194.517,284.989 197.813,287.095 200.006 C 289.201 202.199,293.645 206.856,296.970 210.356 C 300.296 213.856,304.733 218.511,306.830 220.701 C 308.928 222.890,311.941 226.043,313.528 227.707 C 316.871 231.213,322.455 237.055,327.697 242.530 C 329.717 244.640,332.590 247.649,334.081 249.218 C 335.572 250.787,340.012 255.438,343.948 259.554 C 352.629 268.634,355.818 271.972,360.379 276.752 C 362.301 278.766,365.589 282.202,367.686 284.388 C 369.782 286.574,371.640 288.525,371.815 288.723 C 371.990 288.921,374.924 292.005,378.335 295.577 C 384.085 301.597,385.984 303.580,394.317 312.261 C 395.998 314.013,397.963 316.091,398.683 316.879 L 399.992 318.312 399.996 159.156 L 400.000 0.000 248.222 0.000 C 150.265 0.000,96.481 0.110,96.550 0.309 " stroke="none" fill="#ffffff" fill-rule="evenodd"/><path id="path1" d="M0.000 159.236 L 0.000 318.471 200.056 318.471 L 400.111 318.471 399.339 317.609 C 398.288 316.435,390.372 308.123,381.812 299.207 C 380.129 297.454,378.215 295.446,377.558 294.745 C 376.901 294.045,375.267 292.325,373.927 290.924 C 365.331 281.938,363.519 280.042,360.379 276.752 C 355.818 271.972,352.629 268.634,343.948 259.554 C 340.012 255.438,335.572 250.787,334.081 249.218 C 332.590 247.649,329.717 244.640,327.697 242.530 C 322.455 237.055,316.871 231.213,313.528 227.707 C 311.941 226.043,308.928 222.890,306.830 220.701 C 304.733 218.511,300.296 213.856,296.970 210.356 C 293.645 206.856,289.201 202.199,287.095 200.006 C 284.989 197.813,281.836 194.517,280.088 192.681 C 278.341 190.845,276.835 189.269,276.742 189.178 C 276.649 189.087,271.857 184.068,266.093 178.025 C 254.289 165.652,251.534 162.769,245.860 156.855 C 241.275 152.076,235.428 145.946,231.728 142.038 C 230.318 140.549,227.507 137.611,225.481 135.510 C 223.456 133.408,219.079 128.823,215.756 125.322 C 212.433 121.821,208.061 117.235,206.041 115.131 C 201.966 110.887,196.269 104.931,191.873 100.318 C 190.287 98.654,187.202 95.430,185.019 93.153 C 182.836 90.876,178.258 86.075,174.845 82.484 C 171.433 78.893,166.847 74.091,164.655 71.813 C 162.463 69.535,159.033 65.952,157.034 63.851 C 155.035 61.751,152.233 58.814,150.808 57.325 C 149.382 55.836,145.005 51.250,141.081 47.134 C 132.766 38.413,129.630 35.131,124.191 29.459 C 122.007 27.182,117.356 22.309,113.855 18.631 C 110.353 14.952,105.840 10.221,103.824 8.118 C 101.808 6.014,99.252 3.327,98.142 2.146 L 96.125 -0.000 48.063 -0.000 L 0.000 0.000 0.000 159.236 " stroke="none" fill="#ff8a8a" fill-rule="evenodd"/></g></svg>